<?xml version="1.0" encoding="utf-8" ?>
<svg baseProfile="full" height="792px" version="1.1" width="650px" xmlns="http://www.w3.org/2000/svg" xmlns:ev="http://www.w3.org/2001/xml-events" xmlns:xlink="http://www.w3.org/1999/xlink"><defs /><g id="features" stroke="black"><line x1="403" x2="363" y1="431" y2="460" /><line x1="363" x2="323" y1="460" y2="478" /><line x1="323" x2="265" y1="478" y2="478" /><line x1="265" x2="225" y1="478" y2="472" /><line x1="225" x2="190" y1="472" y2="443" /><line x1="190" x2="219" y1="443" y2="408" /><line x1="219" x2="259" y1="408" y2="391" /><line x1="259" x2="317" y1="391" y2="385" /><line x1="317" x2="357" y1="385" y2="403" /><line x1="357" x2="403" y1="403" y2="431" /></g><g id="features" stroke="black"><line x1="386" x2="317" y1="431" y2="437" /><line x1="317" x2="207" y1="437" y2="443" /><line x1="207" x2="265" y1="443" y2="420" /><line x1="265" x2="317" y1="420" y2="420" /><line x1="317" x2="386" y1="420" y2="431" /></g><g id="features" stroke="black"><line x1="230" x2="40" y1="114" y2="149" /><line x1="40" x2="75" y1="149" y2="114" /><line x1="75" x2="126" y1="114" y2="103" /><line x1="126" x2="178" y1="103" y2="97" /><line x1="178" x2="230" y1="97" y2="114" /></g><g id="features" stroke="black"><line x1="536" x2="323" y1="120" y2="103" /><line x1="323" x2="380" y1="103" y2="85" /><line x1="380" x2="432" y1="85" y2="80" /><line x1="432" x2="490" y1="80" y2="91" /><line x1="490" x2="536" y1="91" y2="120" /></g><g id="features" stroke="black"><line x1="196" x2="126" y1="201" y2="212" /><line x1="126" x2="98" y1="212" y2="206" /><line x1="98" x2="126" y1="206" y2="189" /><line x1="126" x2="161" y1="189" y2="183" /><line x1="161" x2="196" y1="183" y2="201" /></g><g id="features" stroke="black"><line x1="478" x2="444" y1="178" y2="189" /><line x1="444" x2="375" y1="189" y2="189" /><line x1="375" x2="403" y1="189" y2="166" /><line x1="403" x2="444" y1="166" y2="166" /><line x1="444" x2="478" y1="166" y2="178" /></g><g id="features" stroke="black"><line x1="346" x2="317" y1="333" y2="345" /><line x1="317" x2="288" y1="345" y2="351" /><line x1="288" x2="230" y1="351" y2="345" /><line x1="230" x2="276" y1="345" y2="172" /><line x1="276" x2="346" y1="172" y2="333" /></g><g id="jaw_line" stroke="black"><line x1="0" x2="5" y1="241" y2="305" /><line x1="5" x2="17" y1="305" y2="368" /><line x1="17" x2="34" y1="368" y2="426" /><line x1="34" x2="57" y1="426" y2="489" /><line x1="57" x2="103" y1="489" y2="535" /><line x1="103" x2="167" y1="535" y2="564" /><line x1="167" x2="236" y1="564" y2="587" /><line x1="236" x2="311" y1="587" y2="587" /><line x1="311" x2="386" y1="587" y2="581" /><line x1="386" x2="455" y1="581" y2="553" /><line x1="455" x2="519" y1="553" y2="518" /><line x1="519" x2="559" y1="518" y2="466" /><line x1="559" x2="576" y1="466" y2="403" /><line x1="576" x2="588" y1="403" y2="339" /><line x1="588" x2="600" y1="339" y2="276" /><line x1="600" x2="600" y1="276" y2="212" /></g></svg>